<svg width="100" height="23" viewBox="0 0 100 23" fill="none" xmlns="http://www.w3.org/2000/svg">
<path d="M31.807 15.8125C32.5528 15.8125 33.2583 15.5502 33.2583 14.7241C33.2583 13.7572 32.3106 13.5351 30.6181 13.2125C27.4342 12.6075 25.4784 11.4799 25.4784 8.59644C25.4784 5.55323 28.6221 4.24268 31.3226 4.24268C34.3457 4.24268 37.3085 5.51202 37.5307 9.70398H34.0241C33.9236 8.01051 32.8754 7.32509 31.1427 7.32509C30.1347 7.32509 29.0663 7.82861 29.0663 8.67484C29.0663 9.52107 29.7307 10.0859 31.7467 10.4889C35.0724 11.1532 36.9266 12.101 36.9266 14.7221C36.9266 17.4839 34.5889 18.7532 31.6251 18.7532C28.2191 18.7532 26.1638 16.7583 25.9819 13.916H29.5487C29.6101 15.1271 30.5166 15.8125 31.807 15.8125ZM42.2141 7.55021V10.0497H48.2402V12.8919H42.2141V15.4507H48.9256V18.5542H38.6472V4.44569H48.9256V7.55021H42.2141ZM60.6493 15.3693V18.5532H50.2693V4.44569H53.8774V15.3693H60.6493ZM65.4633 7.55021V10.0497H71.4894V12.8919H65.4633V15.4507H72.1749V18.5542H61.8955V4.44569H72.1739V7.55021H65.4633ZM80.0834 18.7562C75.5487 18.7562 72.9487 15.8949 72.9487 11.5211C72.9487 7.1472 75.5688 4.24469 79.9628 4.24469C83.9126 4.24469 86.2312 6.54217 86.6141 9.6869H83.006C82.7638 8.21554 81.8171 7.32911 80.0432 7.32911C77.7658 7.32911 76.5759 8.92107 76.5759 11.4819C76.5759 14.2226 77.8653 15.8145 80.1035 15.8145C82.3417 15.8145 82.9648 14.2829 83.1668 12.8517H86.7749C86.4734 16.8407 83.8523 18.7552 80.0834 18.7562ZM99.4593 7.55021H95.1256V18.5552H91.4985V7.55021H87.1859V4.44569H99.4593V7.55021Z" fill="white"/>
<path d="M18.9546 1.38916H5.59681C2.80485 1.38916 0.540527 3.65147 0.540527 6.44444C0.540527 9.2364 2.80485 11.4997 5.59681 11.4997H0.540527V21.6103H13.8983C16.6903 21.6103 18.9546 19.3469 18.9546 16.554C18.9546 13.762 16.6913 11.4977 13.8983 11.4977H18.9546V1.38916Z" fill="#38BDF8"/>
</svg>
